<svg id="Layer_1" data-name="Layer 1" xmlns="http://www.w3.org/2000/svg" viewBox="0 0 360.3 119.04"><defs><style>.cls-1{fill:#231f20;}</style></defs><path class="cls-1" d="M117.49,361.43h15V407.8H149v12.49H117.49Z" transform="translate(-117.49 -361.43)"/><path class="cls-1" d="M193.36,362.36v41.41c0,10.76-7.14,16.52-20.13,16.52S153,414.53,153,403.77V362.36h14.78v40.56c0,4,1.91,6.09,5.44,6.09s5.4-2.12,5.4-6.09V362.36Z" transform="translate(-117.49 -361.43)"/><path class="cls-1" d="M219.9,403.62h0L223,388l4.1-25.59H242l-13.2,57.93H210.54l-13.61-57.93H213" transform="translate(-117.49 -361.43)"/><path class="cls-1" d="M280.85,403.45h0c-.19,1.28,2-16.82,2-16.82l2.28-25.2h13.62L301,384.86l2.29,18.49h0c-.36,2.1,2.19-16.61,2.19-16.61l2.73-25.31h14.57l-9.23,58.86H295.62L294,406l-2.57-20.48h.75s-1.95,13.5-2.73,20.48l-1.58,14.25H270.26l-9.64-58.86h15.1" transform="translate(-117.49 -361.43)"/><path class="cls-1" d="M330.75,362.36h19.62L364,420.29H348.09l-1.16-7H333l-1.16,7H317.43Zm9.64,13.49h0l-2.61,13.91-2.52,12.86h9.48" transform="translate(-117.49 -361.43)"/><path class="cls-1" d="M377.2,403.62h0l2.48-15,5-26.23h14.94l-13.2,57.93H368.14l-13.62-57.93h16.06" transform="translate(-117.49 -361.43)"/><path class="cls-1" d="M435.57,408v12.29H401.81V362.36h33.76v12.29H416.83v10.88h16.51v10.64H416.83V408Z" transform="translate(-117.49 -361.43)"/><path class="cls-1" d="M438.72,400.41h13.35c.28,6.57,1.79,9.08,6.81,9.08,2.91,0,4.63-1.59,4.63-3.78,0-2.83-1.8-5.18-7.34-8.13l-5.49-3c-5.5-2.95-11.64-6.93-11.56-16.29.08-10.52,6.54-15.94,18.41-15.94,12.63,0,19,7.11,18.76,19H463.78c-.08-5.86-2.19-8.21-6.45-8.21-2.87,0-4.46,1.39-4.46,3.3,0,2.08,1.31,4.31,7.25,7.22l5.66,2.86c5.57,2.83,12,6.42,12,16.62,0,10.92-7.09,17.17-19.52,17.17C445.42,420.29,438.48,412.76,438.72,400.41Z" transform="translate(-117.49 -361.43)"/><path class="cls-1" d="M117.49,463v-6.18c0-11.34,6.09-17.66,17.31-17.66s17.39,6.32,17.39,17.66V463c0,11.22-6.17,17.47-17.39,17.47S117.49,474.21,117.49,463Zm20.59,2.5v-11.3c0-3.93-1.08-5.72-3.28-5.72s-3.2,1.79-3.2,5.72v11.3c0,3.86,1,5.66,3.2,5.66S138.08,469.35,138.08,465.49Z" transform="translate(-117.49 -361.43)"/><path class="cls-1" d="M157.39,450.67h-4v-9.61h4v-2.32c0-8.87,5.47-11.24,19.31-11.57v9l-2.73.23c-2.74.18-3.36,1.08-3.36,3v1.61h6v9.61h-5.4v29.68h-13.8Z" transform="translate(-117.49 -361.43)"/><path class="cls-1" d="M189,441.06h13c-.09,8.52.2,8.84-.77,7.89h0c3.89-6.21,7.05-8.42,11.8-8.42,5.16,0,8.25,3.71,7,8.91h0c2.93-6,6.6-8.91,12.3-8.91,5.94,0,8.75,3.22,8.75,9.88v29.94h-13.8V453c0-2-.77-3.15-2.12-3.15-2,0-3.2,2.58-3.2,7.26v23.24h-13.8V453c0-2-.77-3.15-2.12-3.15-2,0-3.2,2.58-3.2,7.26v23.24H189Z" transform="translate(-117.49 -361.43)"/><path class="cls-1" d="M244,470.1v-.26c0-9.17,7.52-11.53,13.45-13.07l5.9-1.49V451.5c0-2.06-.65-3.07-2.23-3.07s-2.7,1.35-2.62,6.66l-13.73,0c-.15-9.92,5.13-15.92,16.5-15.92,10.18,0,15.89,4.19,15.89,12.46v17.55c0,1.61.5,2.13,1.77,2.13H280v9c-.69.11-3,.18-3.7.18-8.14,0-10.72-2.35-10.06-8.68h0c-1.32,5.88-5.52,8.68-12,8.68S244,476.42,244,470.1Zm19.35-4.94v-2.58l-1.92.63a4.46,4.46,0,0,0-3.55,4.19v.45c0,1.84.77,2.66,2.16,2.66C262.12,470.51,263.31,468.41,263.31,465.16Z" transform="translate(-117.49 -361.43)"/><path class="cls-1" d="M282.79,468.75v-19h-4.24v-9.62h4.24v-7.67l13.81-3.74v11.41h6.9v9.62h-6.9v17.44c0,1.94.92,2.8,2.81,2.8a17.24,17.24,0,0,0,4.36-.67v9.39a26.92,26.92,0,0,1-9.33,1.61C286.65,480.35,282.79,476.57,282.79,468.75Z" transform="translate(-117.49 -361.43)"/><path class="cls-1" d="M339.74,465.32c-.39,9.43-6.71,15.14-16.85,15.14-11,0-17.08-6.1-17.08-17.44v-6.17c0-11.45,6.05-17.7,17.46-17.7,11,0,16.85,6,16.85,16.69,0,1.87-.08,5-.27,7.22H319.42v3.15c0,3.4,1.27,5,3.7,5,2.2,0,3.47-1.31,3.55-5.88m-6.3-12.62v1.5h6.86v-2.58c0-3.07-1.08-4.53-3.35-4.53S320.37,449.09,320.37,452.72Z" transform="translate(-117.49 -361.43)"/><path class="cls-1" d="M342,441.17h13.45v8.08h-1.16c3.9-6.81,7.79-8.6,13.19-9.39V452.1l-3.55.37c-6.05.71-8.13,2.43-8.13,11.64v16.35H342Z" transform="translate(-117.49 -361.43)"/><path class="cls-1" d="M370.17,428.67H384v9.43H370.17Zm0,12.46H384v39.3H370.17Z" transform="translate(-117.49 -361.43)"/><path class="cls-1" d="M388,470.1v-.26c0-9.17,7.52-11.53,13.46-13.07l5.9-1.49V451.5c0-2.06-.66-3.07-2.24-3.07s-2.7,1.35-2.62,6.66H389.64c-.15-9.91,4.29-15.93,15.66-15.93,10.18,0,15.89,4.19,15.89,12.46v17.55c0,1.61.5,2.13,1.77,2.13H424v9c-.69.11-3,.18-3.7.18-8.13,0-10.72-2.35-10.06-8.68h0c-1.31,5.88-5.52,8.68-12,8.68S388,476.42,388,470.1Zm19.36-4.94v-2.58l-1.93.63a4.46,4.46,0,0,0-3.55,4.19v.45c0,1.84.77,2.66,2.16,2.66C406.19,470.51,407.39,468.41,407.39,465.16Z" transform="translate(-117.49 -361.43)"/><path class="cls-1" d="M441.61,428.07v52.39h-13.8V428.07Z" transform="translate(-117.49 -361.43)"/><path class="cls-1" d="M444.31,465.7l13.56.05c0,3.86.95,5.81,3.22,5.81,1.43,0,2.22-.68,2.22-2,0-2.11-1.59-3.74-5.92-6.08l-4.3-2.31c-4.37-2.39-8.42-5.93-8.42-11.61,0-8.15,5.64-12.72,16-12.72,10.74,0,16.14,5.67,16.14,13.9h-13.2c.12-3.58-.75-5.13-2.86-5.13-1.39,0-2.31.68-2.31,2,0,1.91,1.35,3.22,5.65,5.37l4.29,2.11c4.3,2.14,9.43,5.08,9.43,12.84,0,8.15-5.93,12.56-16.82,12.56S444.27,474.49,444.31,465.7Z" transform="translate(-117.49 -361.43)"/></svg>