<svg xmlns="http://www.w3.org/2000/svg" width="285" height="100" viewBox="0 0 285 100">
  <g id="Group_99" data-name="Group 99" transform="translate(-558 -35)">
    <rect id="Rectangle_1" data-name="Rectangle 1" width="285" height="100" transform="translate(558 35)" fill="#fbfbf5"/>
    <g id="Group_93" data-name="Group 93" transform="translate(458.829 -225.328)">
      <g id="Group_89" data-name="Group 89" transform="translate(104.171 266.328)">
        <path id="Path_725" data-name="Path 725" d="M104.171,266.328h11.446v35.341H128.2v9.516H104.171Z" transform="translate(-104.171 -266.328)" fill="#1a1818"/>
        <path id="Path_726" data-name="Path 726" d="M170.442,267.262v31.554c0,8.2-5.445,12.591-15.344,12.591-9.961,0-15.406-4.393-15.406-12.591V267.262h11.26v30.9c0,3.032,1.454,4.641,4.145,4.641,2.63,0,4.115-1.609,4.115-4.641v-30.9Z" transform="translate(-112.624 -266.55)" fill="#1a1818"/>
        <path id="Path_727" data-name="Path 727" d="M201.113,298.7h0l2.368-11.936,3.118-19.5h11.384l-10.059,44.145H193.986l-10.374-44.145h12.235" transform="translate(-123.077 -266.55)" fill="#1a1818"/>
        <path id="Path_728" data-name="Path 728" d="M262.713,298.353h0c-.141.976,1.544-12.819,1.544-12.819L266,266.328H276.37l1.659,17.857,1.747,14.087h0c-.269,1.6,1.671-12.656,1.671-12.656l2.081-19.288h11.1L287.6,311.185H273.974l-1.261-10.862-1.957-15.6h.569s-1.482,10.285-2.081,15.6l-1.2,10.862h-13.4L247.3,266.328h11.509" transform="translate(-138.233 -266.328)" fill="#1a1818"/>
        <path id="Path_729" data-name="Path 729" d="M314.262,267.262h14.946l10.374,44.145H327.474l-.882-5.3H316l-.883,5.3h-11Zm7.347,10.28h0l-1.995,10.6-1.916,9.8h7.222" transform="translate(-151.753 -266.55)" fill="#1a1818"/>
        <path id="Path_730" data-name="Path 730" d="M358.484,298.7h0l1.892-11.446,3.815-19.992h11.384l-10.059,44.145H351.578L341.2,267.262h12.235" transform="translate(-160.581 -266.55)" fill="#1a1818"/>
        <path id="Path_731" data-name="Path 731" d="M414.217,302.042v9.365h-25.73V267.262h25.73v9.365H399.933v8.292h12.581v8.1H399.933v9.018Z" transform="translate(-171.833 -266.55)" fill="#1a1818"/>
        <path id="Path_732" data-name="Path 732" d="M425.4,296.258h10.176c.213,5.009,1.366,6.922,5.192,6.922,2.217,0,3.522-1.215,3.522-2.884,0-2.156-1.366-3.947-5.586-6.194l-4.19-2.277c-4.19-2.247-8.865-5.283-8.8-12.418.06-8.016,4.979-12.144,14.026-12.144,9.625,0,14.513,5.416,14.3,14.464l-9.533-.012c-.061-4.463-1.67-6.255-4.919-6.255-2.186,0-3.4,1.063-3.4,2.52,0,1.579,1,3.279,5.525,5.5l4.311,2.186c4.251,2.156,9.108,4.888,9.108,12.66,0,8.319-5.4,13.086-14.877,13.086C430.5,311.407,425.214,305.67,425.4,296.258Z" transform="translate(-180.616 -266.55)" fill="#1a1818"/>
      </g>
      <g id="Group_92" data-name="Group 92" transform="translate(104.171 316.423)">
        <g id="Group_90" data-name="Group 90">
          <path id="Path_733" data-name="Path 733" d="M104.171,362.216V357.51c0-8.641,4.642-13.46,13.191-13.46,8.579,0,13.251,4.819,13.251,13.46v4.705c0,8.555-4.7,13.317-13.251,13.317S104.171,370.771,104.171,362.216Zm15.689,1.91v-8.612c0-2.994-.823-4.363-2.5-4.363-1.645,0-2.438,1.369-2.438,4.363v8.612c0,2.938.793,4.306,2.438,4.306C119.037,368.432,119.86,367.064,119.86,364.126Z" transform="translate(-104.171 -334.92)" fill="#1a1818"/>
          <path id="Path_734" data-name="Path 734" d="M143.124,349.982H140.1v-7.329h3.026v-1.768c0-6.758,4.172-8.561,14.719-8.817v6.878l-2.086.171c-2.086.143-2.557.827-2.557,2.31v1.226h4.554v7.329h-4.113V372.6H143.124Z" transform="translate(-112.721 -332.068)" fill="#1a1818"/>
          <path id="Path_735" data-name="Path 735" d="M175.717,345.834h9.869c-.068,6.494.155,6.74-.585,6.017h0c2.967-4.734,5.377-6.416,8.99-6.416,3.937,0,6.287,2.823,5.347,6.787h0c2.233-4.563,5.024-6.787,9.372-6.787,4.525,0,6.669,2.453,6.669,7.529v22.813H204.862V354.931c0-1.511-.588-2.4-1.616-2.4-1.557,0-2.438,1.968-2.438,5.532v17.709H190.289V354.931c0-1.511-.588-2.4-1.615-2.4-1.558,0-2.438,1.968-2.438,5.532v17.709H175.717Z" transform="translate(-121.198 -335.249)" fill="#1a1818"/>
          <path id="Path_736" data-name="Path 736" d="M230.641,367.634v-.2c0-6.986,5.729-8.783,10.253-9.952l4.5-1.141v-2.88c0-1.568-.5-2.339-1.7-2.339-1.292,0-2.057,1.027-2,5.077l-10.459-.018c-.118-7.557,3.907-12.13,12.574-12.13,7.757,0,12.1,3.194,12.1,9.5v13.375c0,1.226.382,1.625,1.352,1.625h.822v6.844c-.529.085-2.291.142-2.82.142-6.2,0-8.168-1.8-7.668-6.616h0c-1,4.477-4.2,6.616-9.166,6.616C233.52,375.533,230.641,372.453,230.641,367.634Zm14.748-3.764V361.9l-1.468.485a3.4,3.4,0,0,0-2.7,3.194v.342c0,1.4.588,2.025,1.646,2.025C244.478,367.948,245.389,366.351,245.389,363.87Z" transform="translate(-134.269 -334.92)" fill="#1a1818"/>
          <path id="Path_737" data-name="Path 737" d="M268.466,364.132V349.674h-3.232v-7.329h3.232V336.5l10.517-2.851v8.7h5.259v7.329h-5.259v13.289a1.867,1.867,0,0,0,2.145,2.138,13.182,13.182,0,0,0,3.32-.513v7.158a20.517,20.517,0,0,1-7.11,1.226C271.4,372.972,268.466,370.091,268.466,364.132Z" transform="translate(-142.501 -332.444)" fill="#1a1818"/>
          <path id="Path_738" data-name="Path 738" d="M318.343,364c-.294,7.186-5.112,11.536-12.839,11.536-8.4,0-13.015-4.648-13.015-13.289v-4.705c0-8.726,4.612-13.488,13.309-13.488,8.373,0,12.838,4.591,12.838,12.718,0,1.426-.059,3.793-.2,5.5H302.86v2.4c0,2.6.97,3.822,2.821,3.822,1.674,0,2.644-1,2.7-4.478m-4.8-9.617v1.14h5.229v-1.968c0-2.338-.822-3.45-2.556-3.45C304.466,350.117,303.585,351.628,303.585,354.395Z" transform="translate(-148.987 -334.92)" fill="#1a1818"/>
          <path id="Path_739" data-name="Path 739" d="M328.678,345.759h10.253v6.16h-.881c2.967-5.19,5.935-6.559,10.048-7.158v9.325l-2.7.285c-4.612.542-6.2,1.853-6.2,8.868V375.7H328.678Z" transform="translate(-157.6 -335.089)" fill="#1a1818"/>
          <path id="Path_740" data-name="Path 740" d="M356.855,333.572h10.518v7.187H356.855Zm0,9.5h10.518v29.943H356.855Z" transform="translate(-164.305 -332.426)" fill="#1a1818"/>
          <path id="Path_741" data-name="Path 741" d="M374.713,367.634v-.2c0-6.986,5.73-8.783,10.254-9.952l4.5-1.141v-2.88c0-1.568-.5-2.339-1.7-2.339-1.292,0-2.057,1.027-2,5.077l-9.819-.006c-.117-7.557,3.267-12.142,11.934-12.142,7.757,0,12.1,3.194,12.1,9.5v13.375c0,1.226.382,1.625,1.352,1.625h.822v6.844c-.529.085-2.291.142-2.82.142-6.2,0-8.168-1.8-7.668-6.616h0c-1,4.477-4.2,6.616-9.166,6.616C377.593,375.533,374.713,372.453,374.713,367.634Zm14.749-3.764V361.9l-1.469.485a3.4,3.4,0,0,0-2.7,3.194v.342c0,1.4.588,2.025,1.645,2.025C388.551,367.948,389.462,366.351,389.462,363.87Z" transform="translate(-168.555 -334.92)" fill="#1a1818"/>
          <path id="Path_742" data-name="Path 742" d="M425.008,332.973V372.9H414.49V332.973Z" transform="translate(-178.022 -332.283)" fill="#1a1818"/>
        </g>
        <g id="Group_91" data-name="Group 91" transform="translate(249.041 7.345)">
          <path id="Path_743" data-name="Path 743" d="M430.989,363.725l10.332.04c-.03,2.94.727,4.424,2.454,4.424,1.09,0,1.7-.515,1.7-1.546,0-1.606-1.212-2.847-4.514-4.635l-3.273-1.757c-3.332-1.818-6.423-4.515-6.423-8.847,0-6.212,4.3-9.7,12.18-9.7,8.181,0,12.3,4.326,12.3,10.6l-10.059.007c.091-2.727-.575-3.908-2.181-3.908-1.061,0-1.758.514-1.758,1.514,0,1.454,1.03,2.454,4.3,4.091l3.272,1.606c3.272,1.637,7.18,3.879,7.18,9.787,0,6.211-4.514,9.575-12.816,9.575C435.352,374.975,430.958,370.421,430.989,363.725Z" transform="translate(-430.989 -341.707)" fill="#1a1818"/>
        </g>
      </g>
    </g>
  </g>
</svg>
