<svg xmlns="http://www.w3.org/2000/svg" width="189.597" height="146.756" viewBox="0 0 189.597 146.756">
  <g id="Group_76" data-name="Group 76" transform="translate(0.5 0.686)">
    <path id="Path_686" data-name="Path 686" d="M167.244,249.467a159.535,159.535,0,0,1,4.8-33.794c9.82-39.626,31.328-69.436,48.04-66.58s21.846,37.217,12.481,76.918C220.3,278,187.416,299.067,183.918,292.468c-5.513-10.4,17.7-25.869,95.07-59.14,60.153-25.865,91.789-77.421,69.889-84.117-14.487-4.429-51.265,4.52-77.057,36.72-27,33.7-49.113,91.744-40.13,105.615,0,0-1.332-17.486,16.833-27.558,22.136-12.273,32.737,5.588,53.117,7.561,12.649,1.222,19.652-17.52,19.652-17.52" transform="translate(-167.244 -148.152)" fill="none" stroke="#000" stroke-linejoin="round" stroke-width="1"/>
  </g>
</svg>
